<svg xmlns="http://www.w3.org/2000/svg" viewBox="0 0 1600 900" preserveAspectRatio="xMidYMid slice" role="img" aria-label="Immagine di sfondo decorativa">
  <defs>
    <linearGradient id="bg" x1="0" y1="0" x2="1" y2="1">
      <stop offset="0" stop-color="#2e2a25"/>
      <stop offset="0.55" stop-color="#4a4036"/>
      <stop offset="1" stop-color="#6b5a45"/>
    </linearGradient>
    <linearGradient id="glow" x1="0" y1="0" x2="0" y2="1">
      <stop offset="0" stop-color="#c9a06a" stop-opacity="0.55"/>
      <stop offset="1" stop-color="#c9a06a" stop-opacity="0"/>
    </linearGradient>
  </defs>
  <rect width="1600" height="900" fill="url(#bg)"/>
  <circle cx="1250" cy="180" r="420" fill="url(#glow)"/>
  <g stroke="#d9cfbf" stroke-opacity="0.28" stroke-width="3" fill="none">
    <path d="M180 700 h420 M220 700 v-160 a40 40 0 0 1 40-40 h260 a40 40 0 0 1 40 40 v160 M250 500 v-90 a30 30 0 0 1 30-30 h180"/>
    <path d="M760 700 v-300 h180 v300 M760 480 h180 M760 560 h180 M760 640 h180"/>
    <ellipse cx="1210" cy="700" rx="190" ry="14"/>
    <path d="M1120 700 v-210 a90 90 0 0 1 180 0 v210"/>
    <path d="M1210 490 v-120 M1150 370 h120"/>
  </g>
  <rect y="700" width="1600" height="4" fill="#c9a06a" fill-opacity="0.25"/>
</svg>
